<svg width="24" height="24" viewBox="0 0 24 24" fill="none" xmlns="http://www.w3.org/2000/svg">
<path d="M13.424 15.12V16H9.744V15.12L10.864 14.688L10 12.336H5.28L4.4 14.704L5.536 15.12V16H2.128V15.12L3.232 14.624L6.88 4.992H8.672L12.32 14.608L13.424 15.12ZM9.584 11.2L7.648 5.952L5.696 11.2H9.584ZM22.7469 15.12V16H20.8429L20.4269 14.848C19.9895 15.296 19.5149 15.6267 19.0029 15.84C18.5015 16.0533 17.9362 16.16 17.3069 16.16C16.2829 16.16 15.5255 15.9627 15.0349 15.568C14.5442 15.1733 14.2989 14.5333 14.2989 13.648C14.2989 12.7093 14.5922 12.032 15.1789 11.616C15.7655 11.1893 16.7095 10.976 18.0109 10.976C18.5229 10.976 18.9709 11.024 19.3549 11.12C19.7495 11.2053 20.0695 11.312 20.3149 11.44V10.816C20.3149 10.3253 20.2509 9.94667 20.1229 9.68C20.0055 9.40267 19.7869 9.20533 19.4669 9.088C19.1575 8.96 18.7042 8.896 18.1069 8.896C17.0295 8.896 15.9095 9.024 14.7469 9.28V8.128C15.9309 7.872 17.0615 7.744 18.1389 7.744C19.1415 7.744 19.8935 7.84533 20.3949 8.048C20.9069 8.25067 21.2429 8.544 21.4029 8.928C21.5735 9.312 21.6589 9.84533 21.6589 10.528V14.64L22.7469 15.12ZM15.7069 13.552C15.7069 14.0747 15.8349 14.448 16.0909 14.672C16.3575 14.896 16.8375 15.008 17.5309 15.008C18.0429 15.008 18.5335 14.9173 19.0029 14.736C19.4829 14.544 19.9202 14.2827 20.3149 13.952V12.352C19.7175 12.1813 18.9975 12.096 18.1549 12.096C17.2269 12.096 16.5869 12.2133 16.2349 12.448C15.8829 12.6827 15.7069 13.0507 15.7069 13.552Z" fill="black"/>
<path d="M13.424 15.12H13.624V14.9923L13.5081 14.9386L13.424 15.12ZM13.424 16V16.2H13.624V16H13.424ZM9.744 16H9.544V16.2H9.744V16ZM9.744 15.12L9.67203 14.9334L9.544 14.9828V15.12H9.744ZM10.864 14.688L10.936 14.8746L11.1196 14.8038L11.0517 14.619L10.864 14.688ZM10 12.336L10.1877 12.267L10.1396 12.136H10V12.336ZM5.28 12.336V12.136H5.14096L5.09253 12.2663L5.28 12.336ZM4.4 14.704L4.21253 14.6343L4.14252 14.8227L4.33123 14.8918L4.4 14.704ZM5.536 15.12H5.736V14.9803L5.60477 14.9322L5.536 15.12ZM5.536 16V16.2H5.736V16H5.536ZM2.128 16H1.928V16.2H2.128V16ZM2.128 15.12L2.04604 14.9376L1.928 14.9906V15.12H2.128ZM3.232 14.624L3.31396 14.8064L3.38965 14.7724L3.41904 14.6948L3.232 14.624ZM6.88 4.992V4.792H6.74188L6.69297 4.92116L6.88 4.992ZM8.672 4.992L8.859 4.92106L8.81004 4.792H8.672V4.992ZM12.32 14.608L12.133 14.6789L12.1619 14.7551L12.2359 14.7894L12.32 14.608ZM9.584 11.2V11.4H9.87096L9.77164 11.1308L9.584 11.2ZM7.648 5.952L7.83564 5.88278L7.64877 5.37623L7.46055 5.88228L7.648 5.952ZM5.696 11.2L5.50855 11.1303L5.40822 11.4H5.696V11.2ZM13.224 15.12V16H13.624V15.12H13.224ZM13.424 15.8H9.744V16.2H13.424V15.8ZM9.944 16V15.12H9.544V16H9.944ZM9.81597 15.3066L10.936 14.8746L10.792 14.5014L9.67203 14.9334L9.81597 15.3066ZM11.0517 14.619L10.1877 12.267L9.81227 12.405L10.6763 14.757L11.0517 14.619ZM10 12.136H5.28V12.536H10V12.136ZM5.09253 12.2663L4.21253 14.6343L4.58747 14.7737L5.46747 12.4057L5.09253 12.2663ZM4.33123 14.8918L5.46723 15.3078L5.60477 14.9322L4.46877 14.5162L4.33123 14.8918ZM5.336 15.12V16H5.736V15.12H5.336ZM5.536 15.8H2.128V16.2H5.536V15.8ZM2.328 16V15.12H1.928V16H2.328ZM2.20996 15.3024L3.31396 14.8064L3.15004 14.4416L2.04604 14.9376L2.20996 15.3024ZM3.41904 14.6948L7.06704 5.06284L6.69297 4.92116L3.04497 14.5532L3.41904 14.6948ZM6.88 5.192H8.672V4.792H6.88V5.192ZM8.485 5.06294L12.133 14.6789L12.507 14.5371L8.859 4.92106L8.485 5.06294ZM12.2359 14.7894L13.3399 15.3014L13.5081 14.9386L12.4041 14.4266L12.2359 14.7894ZM9.77164 11.1308L7.83564 5.88278L7.46036 6.02122L9.39636 11.2692L9.77164 11.1308ZM7.46055 5.88228L5.50855 11.1303L5.88345 11.2697L7.83545 6.02172L7.46055 5.88228ZM5.696 11.4H9.584V11H5.696V11.4ZM22.7469 15.12H22.9469V14.9896L22.8276 14.937L22.7469 15.12ZM22.7469 16V16.2H22.9469V16H22.7469ZM20.8429 16L20.6548 16.0679L20.7025 16.2H20.8429V16ZM20.4269 14.848L20.615 14.7801L20.5066 14.48L20.2838 14.7083L20.4269 14.848ZM19.0029 15.84L18.926 15.6554L18.9246 15.656L19.0029 15.84ZM15.0349 15.568L14.9095 15.7238L15.0349 15.568ZM15.1789 11.616L15.2946 11.7792L15.2965 11.7777L15.1789 11.616ZM19.3549 11.12L19.3063 11.3141L19.3126 11.3155L19.3549 11.12ZM20.3149 11.44L20.2224 11.6173L20.5149 11.7699V11.44H20.3149ZM20.1229 9.68L19.9385 9.75802L19.9426 9.76655L20.1229 9.68ZM19.4669 9.088L19.3903 9.27296L19.398 9.27577L19.4669 9.088ZM14.7469 9.28H14.5469V9.52883L14.7899 9.47532L14.7469 9.28ZM14.7469 8.128L14.7046 7.93252L14.5469 7.96662V8.128H14.7469ZM20.3949 8.048L20.3199 8.23343L20.3213 8.23396L20.3949 8.048ZM21.4029 8.928L21.2182 9.00494L21.2201 9.00923L21.4029 8.928ZM21.6589 14.64H21.4589V14.7704L21.5781 14.823L21.6589 14.64ZM16.0909 14.672L15.9591 14.8225L15.9622 14.8251L16.0909 14.672ZM19.0029 14.736L19.075 14.9226L19.0772 14.9217L19.0029 14.736ZM20.3149 13.952L20.4433 14.1053L20.5149 14.0454V13.952H20.3149ZM20.3149 12.352H20.5149V12.2011L20.3698 12.1597L20.3149 12.352ZM16.2349 12.448L16.1239 12.2816L16.2349 12.448ZM22.5469 15.12V16H22.9469V15.12H22.5469ZM22.7469 15.8H20.8429V16.2H22.7469V15.8ZM21.031 15.9321L20.615 14.7801L20.2388 14.9159L20.6548 16.0679L21.031 15.9321ZM20.2838 14.7083C19.8628 15.1395 19.4101 15.4537 18.926 15.6554L19.0798 16.0246C19.6197 15.7997 20.1163 15.4525 20.57 14.9877L20.2838 14.7083ZM18.9246 15.656C18.4515 15.8573 17.9134 15.96 17.3069 15.96V16.36C17.959 16.36 18.5515 16.2494 19.0812 16.024L18.9246 15.656ZM17.3069 15.96C16.302 15.96 15.5991 15.7652 15.1602 15.4122L14.9095 15.7238C15.452 16.1602 16.2638 16.36 17.3069 16.36V15.96ZM15.1602 15.4122C14.7338 15.0691 14.4989 14.4986 14.4989 13.648H14.0989C14.0989 14.5681 14.3547 15.2775 14.9095 15.7238L15.1602 15.4122ZM14.4989 13.648C14.4989 12.7523 14.7764 12.1466 15.2946 11.7791L15.0632 11.4529C14.408 11.9174 14.0989 12.6663 14.0989 13.648H14.4989ZM15.2965 11.7777C15.8311 11.389 16.7224 11.176 18.0109 11.176V10.776C16.6967 10.776 15.7 10.9897 15.0612 11.4543L15.2965 11.7777ZM18.0109 11.176C18.511 11.176 18.9421 11.223 19.3064 11.314L19.4034 10.926C18.9997 10.825 18.5347 10.776 18.0109 10.776V11.176ZM19.3126 11.3155C19.697 11.3986 19.9983 11.5004 20.2224 11.6173L20.4074 11.2627C20.1408 11.1236 19.8021 11.0121 19.3971 10.9245L19.3126 11.3155ZM20.5149 11.44V10.816H20.1149V11.44H20.5149ZM20.5149 10.816C20.5149 10.3127 20.45 9.89929 20.3032 9.59345L19.9426 9.76655C20.0518 9.99404 20.1149 10.338 20.1149 10.816H20.5149ZM20.3071 9.60207C20.1652 9.26677 19.9002 9.03385 19.5357 8.90022L19.398 9.27577C19.6736 9.37681 19.8459 9.53856 19.9387 9.75793L20.3071 9.60207ZM19.5433 8.9032C19.1977 8.76017 18.7131 8.696 18.1069 8.696V9.096C18.6953 9.096 19.1174 9.15983 19.3904 9.2728L19.5433 8.9032ZM18.1069 8.696C17.0137 8.696 15.8792 8.82589 14.7039 9.08468L14.7899 9.47532C15.9399 9.22211 17.0454 9.096 18.1069 9.096V8.696ZM14.9469 9.28V8.128H14.5469V9.28H14.9469ZM14.7891 8.32348C15.9609 8.07012 17.0774 7.944 18.1389 7.944V7.544C17.0457 7.544 15.9008 7.67388 14.7046 7.93252L14.7891 8.32348ZM18.1389 7.944C19.134 7.944 19.8548 8.04541 20.3199 8.23342L20.4698 7.86258C19.9322 7.64525 19.1491 7.544 18.1389 7.544V7.944ZM20.3213 8.23396C20.8 8.42345 21.0851 8.68536 21.2183 9.00492L21.5875 8.85108C21.4006 8.40264 21.0138 8.07789 20.4685 7.86204L20.3213 8.23396ZM21.2201 9.00923C21.3745 9.35659 21.4589 9.85793 21.4589 10.528H21.8589C21.8589 9.83273 21.7726 9.26741 21.5856 8.84677L21.2201 9.00923ZM21.4589 10.528V14.64H21.8589V10.528H21.4589ZM21.5781 14.823L22.6661 15.303L22.8276 14.937L21.7396 14.457L21.5781 14.823ZM15.5069 13.552C15.5069 14.1014 15.6409 14.5441 15.9592 14.8225L16.2226 14.5215C16.0288 14.3519 15.9069 14.0479 15.9069 13.552H15.5069ZM15.9622 14.8251C16.2867 15.0977 16.8301 15.208 17.5309 15.208V14.808C16.845 14.808 16.4284 14.6943 16.2195 14.5189L15.9622 14.8251ZM17.5309 15.208C18.0671 15.208 18.5822 15.1129 19.075 14.9226L18.9308 14.5494C18.4849 14.7217 18.0187 14.808 17.5309 14.808V15.208ZM19.0772 14.9217C19.5767 14.7219 20.0324 14.4496 20.4433 14.1053L20.1864 13.7987C19.8081 14.1157 19.389 14.3661 18.9286 14.5503L19.0772 14.9217ZM20.5149 13.952V12.352H20.1149V13.952H20.5149ZM20.3698 12.1597C19.7495 11.9825 19.01 11.896 18.1549 11.896V12.296C18.9851 12.296 19.6855 12.3802 20.2599 12.5443L20.3698 12.1597ZM18.1549 11.896C17.2246 11.896 16.53 12.0109 16.1239 12.2816L16.3458 12.6144C16.6438 12.4158 17.2292 12.296 18.1549 12.296V11.896ZM16.1239 12.2816C15.7054 12.5606 15.5069 12.9981 15.5069 13.552H15.9069C15.9069 13.1033 16.0604 12.8047 16.3458 12.6144L16.1239 12.2816Z" fill="black"/>
</svg>
